<?xml version="1.0" encoding="UTF-8" standalone="no"?>
<!DOCTYPE svg PUBLIC "-//W3C//DTD SVG 1.1//EN" "http://www.w3.org/Graphics/SVG/1.1/DTD/svg11.dtd">
<svg version="1.1" xmlns="http://www.w3.org/2000/svg" xmlns:xlink="http://www.w3.org/1999/xlink" preserveAspectRatio="xMidYMid meet" viewBox="0 0 640 640" width="640" height="640"><defs><path d="M146.67 173.33C146.67 184 146.67 269.33 146.67 280C146.67 287.36 152.64 293.33 160 293.33C165.33 293.33 208 293.33 213.33 293.33C220.7 293.33 226.67 287.36 226.67 280C226.67 269.33 226.67 184 226.67 173.33C226.67 121.79 268.45 80 320 80C371.55 80 413.33 121.79 413.33 173.33C413.33 184 413.33 269.33 413.33 280C413.33 287.36 419.3 293.33 426.67 293.33C432 293.33 474.67 293.33 480 293.33C487.36 293.33 493.33 287.36 493.33 280C493.33 269.33 493.33 184 493.33 173.33C493.22 77.65 415.68 0.12 320 0C224.32 0.12 146.78 77.65 146.67 173.33Z" id="d4zEDjGwbJ"></path><path d="M480 266.67C516.82 266.67 546.67 296.51 546.67 333.33C546.67 357.33 546.67 549.33 546.67 573.33C546.67 610.15 516.82 640 480 640C448 640 192 640 160 640C123.18 640 93.33 610.15 93.33 573.33C93.33 549.33 93.33 357.33 93.33 333.33C93.33 296.51 123.18 266.67 160 266.67C224 266.67 448 266.67 480 266.67Z" id="b6ppmfBFWr"></path><path d="M320.28 346.39C283.46 346.23 253.49 375.95 253.33 412.77C253.23 438.22 267.62 461.51 290.43 472.8C289.4 480 281.16 537.6 280.13 544.8C279.1 552.09 284.18 558.84 291.47 559.87C292.09 559.96 292.71 560 293.33 560C298.67 560 341.33 560 346.67 560C354.03 560.08 360.06 554.17 360.13 546.8C360.14 546.12 360.1 545.45 360 544.77C358.97 537.57 350.73 479.97 349.71 472.77C372.24 461.5 386.52 438.53 386.67 413.33C386.82 376.52 357.1 346.54 320.28 346.39Z" id="b1jxybmVi9"></path><path d="" id="a1PSnGdS8F"></path></defs><g><g><g><use xlink:href="#d4zEDjGwbJ" opacity="1" fill="#455a64" fill-opacity="1"></use><g><use xlink:href="#d4zEDjGwbJ" opacity="1" fill-opacity="0" stroke="#000000" stroke-width="1" stroke-opacity="0"></use></g></g><g><use xlink:href="#b6ppmfBFWr" opacity="1" fill="#fc7b03" fill-opacity="1"></use><g><use xlink:href="#b6ppmfBFWr" opacity="1" fill-opacity="0" stroke="#000000" stroke-width="1" stroke-opacity="0"></use></g></g><g><use xlink:href="#b1jxybmVi9" opacity="1" fill="#455a64" fill-opacity="1"></use><g><use xlink:href="#b1jxybmVi9" opacity="1" fill-opacity="0" stroke="#000000" stroke-width="1" stroke-opacity="0"></use></g></g><g><g><use xlink:href="#a1PSnGdS8F" opacity="1" fill-opacity="0" stroke="#000000" stroke-width="1" stroke-opacity="1"></use></g></g></g></g></svg>